<?xml version="1.0" encoding="UTF-8" standalone="no"?><!DOCTYPE svg PUBLIC "-//W3C//DTD SVG 1.1//EN" "http://www.w3.org/Graphics/SVG/1.1/DTD/svg11.dtd"><svg width="100%" height="100%" viewBox="0 0 18 18" version="1.1" xmlns="http://www.w3.org/2000/svg" xmlns:xlink="http://www.w3.org/1999/xlink" xml:space="preserve" xmlns:serif="http://www.serif.com/" style="fill-rule:evenodd;clip-rule:evenodd;stroke-linejoin:round;stroke-miterlimit:2;"><g><path d="M18,15.5c-0,1.38 -1.12,2.5 -2.5,2.5l-13,-0c-1.38,-0 -2.5,-1.12 -2.5,-2.5l0,-13c0,-1.38 1.12,-2.5 2.5,-2.5l13,0c1.38,0 2.5,1.12 2.5,2.5l-0,13Zm-4.115,-4.98c-0.355,-0.25 -0.84,-0.16 -1.09,0.195c-1.07,1.48 -2.61,2.785 -4.79,2.785c-2.18,-0 -2.31,-3.94 -1,-6.5c0.805,-1.57 1.935,-2.865 2.92,-2.86c0.695,-0 1.09,0.63 0.9,1.3c-0.23,0.815 -0.255,1.36 -0.255,1.405c-0.02,0.48 0.355,0.885 0.84,0.9c0.01,-0 0.02,0.005 0.035,0.005c0.465,-0 0.85,-0.37 0.87,-0.84c-0,-0.015 0.09,-1.655 1.39,-3.385c0.315,-0.42 0.195,-1.035 -0.285,-1.295c-0.385,-0.21 -0.875,-0.07 -1.135,0.28c-0.075,0.1 -0.145,0.195 -0.21,0.295c-0.07,0.1 -0.2,0.135 -0.31,0.085c-3.85,-1.735 -6.035,1.93 -6.755,3.615c-1.5,3.5 -1.5,9 2.81,9c3.61,-0 5.315,-2.375 6.3,-3.895c0.23,-0.355 0.135,-0.83 -0.21,-1.07c-0.005,-0 -0.01,-0.01 -0.015,-0.01l-0.01,-0.01Z" fill="currentColor"/></g></svg>